<?xml version="1.0" encoding="iso-8859-1"?>
<!-- Generator: Adobe Illustrator 19.0.0, SVG Export Plug-In . SVG Version: 6.00 Build 0)  -->
<svg version="1.1" id="Capa_1"
	xmlns="http://www.w3.org/2000/svg"
	xmlns:xlink="http://www.w3.org/1999/xlink" x="0px" y="0px" viewBox="0 0 512 512" style="enable-background:new 0 0 512 512;" xml:space="preserve">
	<g>
		<g>
			<path d="M421.373,234.507c-1.999-3.628-6.56-4.947-10.188-2.953l-88.859,48.927c-3.629,1.998-4.95,6.56-2.953,10.188
			c2,3.63,6.56,4.949,10.188,2.953l88.859-48.927C422.049,242.697,423.37,238.135,421.373,234.507z"/>
		</g>
	</g>
	<g>
		<g>
			<path d="M451.459,251.072c-1.997-3.628-6.56-4.948-10.188-2.953l-88.86,48.926c-6.748,3.716-4.138,14.072,3.624,14.072
			c3.649,0-0.547,0.967,92.471-49.857C452.135,259.262,453.456,254.701,451.459,251.072z"/>
		</g>
	</g>
	<g>
		<g>
			<path d="M421.373,341.347c-1.999-3.628-6.56-4.948-10.188-2.953l-88.859,48.927c-3.629,1.998-4.95,6.56-2.953,10.188
			c2,3.629,6.56,4.949,10.188,2.953l88.859-48.927C422.048,349.537,423.37,344.975,421.373,341.347z"/>
		</g>
	</g>
	<g>
		<g>
			<path d="M451.458,357.912c-1.997-3.628-6.56-4.948-10.188-2.953l-88.86,48.927c-3.629,1.998-4.95,6.56-2.953,10.188
			c1.995,3.622,6.554,4.952,10.188,2.953l88.86-48.927C452.134,366.102,453.455,361.54,451.458,357.912z"/>
		</g>
	</g>
	<g>
		<g>
			<path d="M361.203,94.537c-1.998-3.627-6.56-4.948-10.188-2.953l-88.86,48.927c-3.629,1.998-4.95,6.56-2.953,10.188
			c1.994,3.622,6.553,4.953,10.188,2.953l88.86-48.927C361.879,102.727,363.2,98.165,361.203,94.537z"/>
		</g>
	</g>
	<g>
		<g>
			<path d="M391.288,111.103c-1.997-3.628-6.56-4.947-10.188-2.953l-88.86,48.926c-6.748,3.715-4.137,14.071,3.624,14.071
			c3.649,0-0.547,0.967,92.471-49.856C391.964,119.293,393.285,114.731,391.288,111.103z"/>
		</g>
	</g>
	<g>
		<g>
			<path d="M421.373,127.668c-1.999-3.629-6.56-4.95-10.188-2.954l-88.859,48.927c-3.629,1.998-4.95,6.56-2.953,10.188
			c2,3.629,6.56,4.949,10.188,2.953l88.859-48.927C422.049,135.857,423.37,131.295,421.373,127.668z"/>
		</g>
	</g>
	<g>
		<g>
			<path d="M451.459,144.233c-1.997-3.628-6.56-4.948-10.188-2.953l-88.86,48.926c-6.748,3.715-4.138,14.071,3.624,14.071
			c3.649,0-0.547,0.967,92.471-49.856C452.135,152.423,453.456,147.861,451.459,144.233z"/>
		</g>
	</g>
	<g>
		<g>
			<path d="M320.946,196.797l-72.84-40.105c-4.803-2.643-10.535-2.643-15.338,0l-59.651,32.845c-10.961,6.034-10.96,21.821,0,27.856
			c76.186,41.175,73.289,42.088,80.509,42.088c7.16,0,5.592-1.593,67.32-34.826C331.907,218.619,331.906,202.832,320.946,196.797z
			 M313.712,211.514c-63.262,34.644-59.693,33.302-60.521,32.844c-78-42.946-73.306-40.067-73.306-40.894
			c0-0.717,60.277-34.026,60.987-33.633C315.551,210.949,315.836,210.353,313.712,211.514z"/>
		</g>
	</g>
	<g>
		<g>
			<path d="M309.476,64.73l-45.122-24.844c-4.76-2.621-10.445-2.621-15.205,0l-174.13,95.876c-10.866,5.982-10.867,21.635,0,27.618
			c45.73,24.465,45.675,26.81,52.724,26.81c7.045,0,7.241-2.474,50.695-25.692c3.629-1.998,4.95-6.56,2.953-10.188
			c-1.998-3.628-6.559-4.949-10.188-2.953c-45.629,24.965-43.124,24.115-43.829,23.727c-45.221-24.899-46.964-25.168-45.121-26.181
			c181.88-99.985,174.158-96.266,174.866-95.876c49.118,27.043,45.517,24.81,45.517,25.513c-0.001,0.45,6.96-3.383-100.634,55.858
			c-3.629,1.998-4.95,6.56-2.953,10.188c1.998,3.629,6.561,4.949,10.188,2.953l100.24-55.192
			C320.341,86.364,320.341,70.715,309.476,64.73z"/>
		</g>
	</g>
	<g>
		<g>
			<g>
				<polygon points="261.297,471.177 261.295,471.178 261.295,471.178 			"/>
				<path d="M502.54,346.855l-67.993-37.438l67.993-37.437c5.826-3.207,9.445-9.331,9.445-15.982
				c0.001-6.651-3.618-12.775-9.445-15.984l-67.993-37.437l67.993-37.437c12.574-6.922,12.578-25.039,0-31.966L358.632,53.939
				c-3.626-1.995-8.189-0.675-10.188,2.953c-1.997,3.628-0.676,8.189,2.953,10.187c149.269,83.42,145.587,78.061,145.587,82.078
				c0,4.082,9.573-4.603-239.421,133.742c-2.984,1.644,2.685,2.536-120.157-64.437c-0.117-0.064-5.823-3.206-5.658-3.115
				L16.696,151.999c-1.462-0.805-1.68-2.126-1.68-2.842c0-4.084-9.576,4.605,239.419-133.742c2.974-1.641,1.437-0.294,66.293,34.777
				c3.628,1.997,8.189,0.676,10.188-2.953c1.997-3.628,0.676-8.189-2.953-10.188L264.8,2.275c-5.51-3.033-12.09-3.033-17.6,0
				L9.461,133.174c-12.572,6.923-12.58,25.041,0,31.966l67.993,37.437L9.461,240.014c-5.827,3.209-9.446,9.333-9.445,15.984
				c0,6.65,3.619,12.774,9.445,15.982l67.994,37.437L9.461,346.855c-5.826,3.207-9.445,9.332-9.445,15.982
				c0,6.651,3.619,12.775,9.445,15.982C258.542,515.038,247.173,511.995,256,511.995c8.842,0,2.521,0.274,178.846-95.903
				c3.629-1.998,4.95-6.56,2.953-10.188c-1.999-3.628-6.559-4.948-10.188-2.953L257.566,496.58c-2.99,1.65,11.884,7.59-240.87-130.9
				c-1.462-0.805-1.68-2.126-1.68-2.842s0.218-2.037,1.68-2.842l76.309-42.017l19.577,10.779l-37.563,20.684
				c-10.868,5.981-10.868,21.636-0.001,27.617c45.73,24.466,45.675,26.81,52.724,26.81c7.08,0,5.942-1.791,62.645-32.272
				l20.077,11.054l-37.347,20.564c-10.961,6.036-10.96,21.822,0,27.857c76.196,41.182,73.292,42.089,80.509,42.089
				c2.634,0,5.269-0.661,7.669-1.983l59.651-32.844c10.961-6.036,10.96-21.822,0-27.857l-34.972-19.256l133.022-73.242
				l76.309,42.017c2.235,1.23,2.261,4.439,0,5.684l-36.895,20.314c-3.629,1.998-4.95,6.56-2.953,10.188
				c1.999,3.629,6.561,4.949,10.188,2.953l36.895-20.315C515.116,371.898,515.117,353.778,502.54,346.855z M257.239,298.27
				c5.863-0.402,8.922-3.252,13.185-5.327c43.673,24.046,45.34,24.29,43.287,25.411c-63.262,34.644-59.693,33.302-60.52,32.844
				c-78-42.946-73.306-40.067-73.306-40.893s-3.479,1.383,46.128-25.931C247.873,296.396,250.2,298.756,257.239,298.27z
				 M174.836,256.196c-49.586,27.145-46.763,26.115-47.463,25.727l-45.122-24.844c-0.535-0.294-0.534-1.043,0.001-1.337
				l45.879-25.262C141.128,237.636,160.535,248.321,174.836,256.196z M127.373,388.764c-45.389-24.992-46.926-25.196-45.121-26.181
				l45.88-25.263c4.832,2.66,42.179,23.224,46.704,25.716C125.285,390.16,128.078,389.152,127.373,388.764z M313.711,425.194
				l-59.651,32.844c-0.001,0.001-0.001,0.001-0.002,0.001c-0.825,0.457,3.83,2.396-73.707-40.107c-0.626-0.342-0.631-1.232,0-1.576
				l45.662-25.142l21.186,11.665c11.461,6.312,20.389-2.115,23.225-3.096C314.096,423.829,315.765,424.073,313.711,425.194z
				 M254.435,389.739c-12.878-7.091-225.27-124.034-237.739-130.899c-1.462-0.805-1.68-2.126-1.68-2.842
				c0-0.716,0.218-2.038,1.68-2.843l76.309-42.016l19.578,10.779l-37.564,20.683c-5.034,2.772-8.161,8.063-8.161,13.81
				c0.001,5.746,3.128,11.037,8.161,13.808c45.555,24.373,45.639,26.811,52.725,26.811c7.067,0,5.97-1.806,62.644-32.272
				l20.077,11.054l-37.347,20.564c-10.961,6.036-10.96,21.822,0,27.857l72.84,40.105c4.795,2.638,10.525,2.648,15.338,0
				l59.651-32.844c10.958-6.034,10.962-21.821,0-27.858l-34.971-19.255l133.022-73.242l76.309,42.016
				c2.26,1.245,2.232,4.455-0.002,5.684C241.412,398.59,256.9,391.099,254.435,389.739z"/>
			</g>
		</g>
	</g>
	<g>
	</g>
	<g>
	</g>
	<g>
	</g>
	<g>
	</g>
	<g>
	</g>
	<g>
	</g>
	<g>
	</g>
	<g>
	</g>
	<g>
	</g>
	<g>
	</g>
	<g>
	</g>
	<g>
	</g>
	<g>
	</g>
	<g>
	</g>
	<g>
	</g>
</svg>
