<svg id="svg8" height="512" viewBox="0 0 8.4666665 8.4666669" width="512" xmlns="http://www.w3.org/2000/svg" xmlns:svg="http://www.w3.org/2000/svg"><g id="layer1" transform="translate(0 -288.533)"><path id="rect823" d="m4.0019531 4.9960938c-1.6447184 0-3.00585935 1.3611223-3.00585935 3.0058593v.5546875l14.86914025 8.4746094c.035558.018898.233966.018898.269532 0l14.861328-8.4707031v-.5585938c0-1.644737-1.351376-3.0058593-2.996094-3.0058593zm-3.00585935 5.8632812v13.138672c0 1.644737 1.36111815 3.003906 3.00585935 3.003906h23.9980469c1.644741 0 2.996094-1.359169 2.996094-3.003906v-13.134766l-13.869141 7.90625c-.714802.407433-1.539104.407433-2.253906 0z" fill-rule="evenodd" transform="matrix(.265 0 0 .265 0 288.533)" font-variant-ligatures="normal" font-variant-position="normal" font-variant-caps="normal" font-variant-numeric="normal" font-variant-alternates="normal" font-feature-settings="normal" text-indent="0" text-align="start" text-decoration-line="none" text-decoration-style="solid" text-decoration-color="rgb(0,0,0)" text-transform="none" text-orientation="mixed" white-space="normal" shape-padding="0" isolation="auto" mix-blend-mode="normal" solid-color="rgb(0,0,0)" solid-opacity="1" vector-effect="none" paint-order="stroke fill markers"/></g></svg>