<svg clip-rule="evenodd" fill-rule="evenodd" stroke-linejoin="round" stroke-miterlimit="2" viewBox="0 0 32 32" xmlns="http://www.w3.org/2000/svg" xmlns:serif="http://www.serif.com/"><g transform="translate(-126 -168)"><path d="m140.447 173.5 7.315-1.96c.641-.172 1.323-.082 1.897.25.575.331.994.877 1.165 1.518.992 3.701 3.15 11.753 4.141 15.454.172.641.082 1.323-.249 1.897-.332.575-.878.994-1.518 1.165l-3.849 1.031c-.124.34-.321.652-.581.913-.469.469-1.105.732-1.768.732h-3.806c-.021.009-.042.016-.065.022 0 0-3.218.862-5.386 1.443-.641.172-1.323.082-1.897-.249-.482-.278-.854-.707-1.063-1.216h-1.782-.001c-.184 0-.344-.099-.431-.247l-3.985-5.976c-.004-.006-.009-.013-.013-.02-.044-.074-.07-.16-.071-.252v-.005-12c0-1.381 1.119-2.5 2.5-2.5h2.55c.232-1.141 1.241-2 2.45-2s2.218.859 2.45 2zm-1.099 21h-3.414c.114.139.253.258.412.35.344.198.754.252 1.138.149zm-5.798-20h-2.55c-.828 0-1.5.672-1.5 1.5v11.5h1.5c1.381 0 2.5 1.119 2.5 2.5v3.5h13.5c.398 0 .779-.158 1.061-.439.281-.282.439-.663.439-1.061 0-3.832 0-12.168 0-16 0-.398-.158-.779-.439-1.061-.282-.281-.663-.439-1.061-.439h-7.768c.17.294.268.636.268 1 0 .371-.101.718-.277 1.016l.8.8c.195.195.195.512 0 .707s-.512.195-.707 0l-.8-.8c-.298.176-.645.277-1.016.277-.512 0-.98-.193-1.334-.51-.16-.144-.297-.313-.405-.501-.546-.052-1.041-.28-1.428-.626-.393-.352-.674-.826-.783-1.363zm-1.05 17.847v-2.347c0-.828-.672-1.5-1.5-1.5h-1.066zm17-.567 3.439-.922c.384-.103.712-.354.911-.699.198-.344.252-.754.149-1.138-.991-3.701-3.149-11.753-4.141-15.455-.103-.384-.354-.712-.699-.91-.344-.199-.754-.253-1.138-.15l-3.711.994h2.69c.663 0 1.299.263 1.768.732s.732 1.105.732 1.768zm-16.5-5.28h6c.276 0 .5-.224.5-.5s-.224-.5-.5-.5h-6c-.276 0-.5.224-.5.5s.224.5.5.5zm0-3h12c.276 0 .5-.224.5-.5s-.224-.5-.5-.5h-12c-.276 0-.5.224-.5.5s.224.5.5.5zm0-3h12c.276 0 .5-.224.5-.5s-.224-.5-.5-.5h-12c-.276 0-.5.224-.5.5s.224.5.5.5zm5.321-5.57c-.144.359-.37.678-.654.933-.216.193-.465.349-.737.458.161.113.358.179.57.179.256 0 .49-.096.666-.255.205-.183.334-.449.334-.745 0-.212-.066-.409-.179-.57zm-2.321.57c.384 0 .734-.145 1-.382.307-.275.5-.674.5-1.118 0-.828-.672-1.5-1.5-1.5s-1.5.672-1.5 1.5c0 .444.193.843.5 1.118.266.237.616.382 1 .382z"/></g></svg>