<svg clip-rule="evenodd" fill-rule="evenodd" height="1.707in" image-rendering="optimizeQuality" shape-rendering="geometricPrecision" text-rendering="geometricPrecision" viewBox="0 0 1707 1707" width="1.707in" xmlns="http://www.w3.org/2000/svg"><g id="Layer_x0020_1"><g id="_317677408"><g><g><g><g><path d="m1538 935h-710c-11 0-20-9-20-20s9-20 20-20h710c11 0 20 9 20 20s-9 20-20 20z" fill="rgb(0,0,0)"/></g><g><path d="m1538 742h-710c-11 0-20-9-20-20s9-20 20-20h710c11 0 20 9 20 20s-9 20-20 20z" fill="rgb(0,0,0)"/></g></g><g><path d="m1117 1477c-10 0-19-3-25-10l-126-126-43 42c-5 5-12 7-19 6-7-2-12-7-14-14l-98-345c-2-7 0-15 5-20s13-7 20-5l345 98c6 2 12 8 13 14 2 7 0 15-5 20l-42 42 126 126c14 14 14 37 0 50l-112 112c-6 7-15 10-25 10zm-151-184c5 0 10 2 14 6l137 137 105-106-137-137c-7-8-7-20 0-28l33-33-278-78 79 277 33-32c3-4 9-6 14-6z" fill="rgb(0,0,0)"/></g><g><path d="m623 1163h-454c-11 0-20-9-20-20s9-20 20-20h454c11 0 20 9 20 20s-9 20-20 20z" fill="rgb(0,0,0)"/></g><g><path d="m623 1295h-454c-11 0-20-9-20-20s9-20 20-20h454c11 0 20 9 20 20s-9 20-20 20z" fill="rgb(0,0,0)"/></g><g><path d="m623 1428h-454c-11 0-20-9-20-20s9-20 20-20h454c11 0 20 9 20 20s-9 20-20 20z" fill="rgb(0,0,0)"/></g><g><path d="m597 1031h-402c-26 0-46-21-46-46v-333c0-25 20-45 46-45h402c25 0 46 20 46 45v333c0 25-21 46-46 46zm-402-384c-4 0-6 2-6 5v333c0 3 2 6 6 6h402c3 0 6-3 6-6v-333c0-3-3-5-6-5z" fill="rgb(0,0,0)"/></g></g><g><g><path d="m934 302h-914c-11 0-20-9-20-20s9-20 20-20h894v-10c0-98 79-178 177-179 11 0 20 9 20 20s-9 20-20 20c-75 1-137 63-137 139v30c0 11-9 20-20 20z" fill="rgb(0,0,0)"/></g><g><path d="m1107 363c-45 0-81-37-81-81 0-45 36-81 81-81 44 0 80 36 80 81 0 44-36 81-80 81zm0-122c-23 0-41 18-41 41 0 22 18 41 41 41 22 0 40-19 40-41 0-23-18-41-40-41z" fill="rgb(0,0,0)"/></g><g><path d="m1327 363c-44 0-81-37-81-81 0-45 37-81 81-81 45 0 81 36 81 81 0 44-36 81-81 81zm0-122c-22 0-41 18-41 41 0 22 19 41 41 41 23 0 41-19 41-41 0-23-18-41-41-41z" fill="rgb(0,0,0)"/></g><g><path d="m1548 363c-45 0-81-37-81-81 0-45 36-81 81-81 44 0 80 36 80 81 0 44-36 81-80 81zm0-122c-23 0-41 18-41 41 0 22 18 41 41 41 22 0 40-19 40-41 0-23-18-41-40-41z" fill="rgb(0,0,0)"/></g><g><path d="m1581 1633h-1456c-69 0-125-56-125-125v-1309c0-70 56-126 125-126h1456c69 0 126 56 126 126v1309c0 69-57 125-126 125zm-1456-1520c-47 0-85 39-85 86v1309c0 47 38 85 85 85h1456c47 0 86-38 86-85v-1309c0-47-39-86-86-86z" fill="rgb(0,0,0)"/></g><g><path d="m1687 491h-1667c-11 0-20-9-20-20s9-20 20-20h1667c11 0 20 9 20 20s-9 20-20 20z" fill="rgb(0,0,0)"/></g></g></g></g></g></svg>