<svg id="Layer_1" enable-background="new 0 0 512 512" height="512" viewBox="0 0 512 512" width="512" xmlns="http://www.w3.org/2000/svg"><g><path d="m256 84.11c-94.93 0-171.89 76.96-171.89 171.89 0 37.95 12.31 73.03 33.14 101.47l-21.93 64.83 68.31-21.33c26.68 17.03 58.37 26.91 92.37 26.91 94.93 0 171.89-76.96 171.89-171.89s-76.96-171.88-171.89-171.88z" fill="#4caf50"/><path d="m241.69 284.66c-10.44-7.94-35.25-37.57-34.57-43.56s18.33-18.65 18.16-25.73-15.91-52.69-30.21-52.83-40.57 16.16-38.76 48.47 28.68 75.88 69.34 106.74 77.87 42.96 109.1 30.5c27.64-11.03 28.05-39.48 24.23-44.38-3.81-4.9-42.02-23.87-49.01-22.51s-14.3 23.46-25.32 24.96c-11.02 1.48-32.52-13.72-42.96-21.66z" fill="#fff"/></g></svg>